<svg width="196" height="196" viewBox="0 0 196 196" fill="none" xmlns="http://www.w3.org/2000/svg">
<path d="M163.342 54.4473C133.271 24.377 84.5176 24.377 54.4473 54.4474C24.3769 84.5177 24.3769 133.271 54.4473 163.342" stroke="url(#paint0_linear_201_335)" stroke-width="46" stroke-linecap="square"/>
<path fill-rule="evenodd" clip-rule="evenodd" d="M109.002 185C150.976 185 185.002 150.974 185.002 109C185.002 67.0264 150.976 33 109.002 33C67.0283 33 33.002 67.0264 33.002 109C33.002 150.974 67.0283 185 109.002 185ZM109.002 186C151.528 186 186.002 151.526 186.002 109C186.002 66.4741 151.528 32 109.002 32C66.476 32 32.002 66.4741 32.002 109C32.002 151.526 66.476 186 109.002 186Z" fill="url(#paint1_linear_201_335)"/>
<defs>
<linearGradient id="paint0_linear_201_335" x1="56.9221" y1="165.817" x2="178.502" y2="50" gradientUnits="userSpaceOnUse">
<stop stop-color="#5DC36D" stop-opacity="0.38"/>
<stop offset="1" stop-color="#5DC36D"/>
</linearGradient>
<linearGradient id="paint1_linear_201_335" x1="181.502" y1="55" x2="99.5019" y2="213" gradientUnits="userSpaceOnUse">
<stop stop-color="#8FAFD1"/>
<stop offset="1" stop-color="#D1DCE8" stop-opacity="0"/>
</linearGradient>
</defs>
</svg>
