<svg width="689" height="272" viewBox="0 0 689 272" fill="none" xmlns="http://www.w3.org/2000/svg">
<path d="M671.136 247.893L659.822 240.218L632.212 243.772L617.196 268.294L601.432 221.846L590.293 235.01L580.167 217.796L558.902 221.846L543.712 202.606L525.485 207.669L496.118 189.442L491.055 178.303L456.626 191.538L423.209 157.763L410.045 141.583L379.666 166.151L353.667 174.638L353.689 185.834L307.241 185.927L300.975 191.538L204.282 182.413L174.125 168.478L152.556 185.834L116.101 157.763L86.7346 157.763L69.8604 133.699L0.791892 121.942C0.530404 121.942 0.00743988 121.942 0.00743988 121.942" stroke="url(#paint0_linear_1_636)" stroke-width="3"/>
<path d="M669.178 185.392H647.858L635.317 161.671L593.931 180.398L567.595 184.143L555.054 174.156L538.751 180.398L473.537 139.199L454.726 147.938L442.185 136.702L420.865 144.193L394.529 119.224L378.225 136.702L364.43 78.0252L349.381 122.969L330.569 100.497L297.962 131.709L284.167 114.23L248.769 136.702L223.97 118.475L202.65 120.972L181.936 114.23L147.031 109.445H123.203L112.355 59.2984L82.2563 105.491L62.1907 25.5903L44.6332 3.11816L37.1086 25.5903L6.0287 6.35963H-4.56264e-05" stroke="url(#paint1_linear_1_636)" stroke-width="3"/>
<path opacity="0.5" d="M689 159.662L-3.02792e-05 159.662" stroke="#E6ECF3" stroke-width="2"/>
<defs>
<linearGradient id="paint0_linear_1_636" x1="50.5568" y1="136.785" x2="711.805" y2="259.314" gradientUnits="userSpaceOnUse">
<stop stop-color="#D1DCE8"/>
<stop offset="1" stop-color="#D1DCE8" stop-opacity="0"/>
</linearGradient>
<linearGradient id="paint1_linear_1_636" x1="84.0428" y1="94.2551" x2="662.461" y2="185.889" gradientUnits="userSpaceOnUse">
<stop stop-color="#73D452"/>
<stop offset="1" stop-color="#73D452" stop-opacity="0"/>
</linearGradient>
</defs>
</svg>
