<svg width="168" height="23" viewBox="0 0 168 23" fill="none" xmlns="http://www.w3.org/2000/svg">
<path d="M58.7132 20.4011H55.3785V15.0094C55.3785 14.5986 55.2691 14.2648 55.0501 14.0081C54.848 13.7513 54.5028 13.623 54.0144 13.623H50.1745V20.4011H46.8398V2.42878H53.6102C54.5196 2.42878 55.3196 2.55716 56.0101 2.8139C56.7006 3.07065 57.2732 3.4301 57.7279 3.89224C58.1995 4.33727 58.5532 4.85933 58.7889 5.4584C59.0416 6.05748 59.1679 6.69935 59.1679 7.38401V8.00021C59.1679 8.73621 58.9742 9.42943 58.5868 10.0799C58.1995 10.7132 57.6016 11.201 56.7932 11.5433V12.0055C57.3827 12.0739 57.8458 12.305 58.1826 12.6987C58.5363 13.0924 58.7132 13.5887 58.7132 14.1878V20.4011ZM50.1745 10.388H53.3575C54.1659 10.388 54.7806 10.1997 55.2017 9.82311C55.6227 9.42943 55.8332 8.8817 55.8332 8.17993V7.87183C55.8332 7.27275 55.6227 6.75926 55.2017 6.33135C54.7806 5.88632 54.1659 5.6638 53.3575 5.6638H50.1745V10.388Z" fill="#000655"/>
<path d="M62.5355 2.42878H73.7014V5.6638H65.8701V9.77176H73.3983V13.0068H65.8701V17.1661H74.0046V20.4011H62.5355V2.42878Z" fill="#000655"/>
<path d="M77.7511 2.42878H89.5739V5.6638H85.3298V17.1661H89.5739V20.4011H77.7511V17.1661H81.9952V5.6638H77.7511V2.42878Z" fill="#000655"/>
<path d="M101.531 18.7066H101.985V2.42878H105.32V20.4011H98.8023L96.7308 4.12332H96.2761V20.4011H92.9415V2.42878H99.4592L101.531 18.7066Z" fill="#000655"/>
<path d="M108.233 2.42878H120.965V5.6638H116.266V20.4011H112.932V5.6638H108.233V2.42878Z" fill="#000655"/>
<path d="M124.409 2.42878H135.574V5.6638H127.743V9.77176H135.271V13.0068H127.743V17.1661H135.878V20.4011H124.409V2.42878Z" fill="#000655"/>
<path d="M145.586 17.6796C146.226 17.6796 146.748 17.5854 147.152 17.3972C147.573 17.1918 147.893 16.9265 148.112 16.6012C148.348 16.2589 148.508 15.8738 148.592 15.4459C148.676 15.0009 148.719 14.5473 148.719 14.0851V13.623H152.053V14.0851C152.053 16.2247 151.497 17.8764 150.386 19.0403C149.291 20.1872 147.691 20.7606 145.586 20.7606C143.565 20.7606 141.965 20.1358 140.786 18.8863C139.607 17.6368 139.018 15.8139 139.018 13.4176V9.41232C139.018 8.26551 139.169 7.23852 139.473 6.33135C139.776 5.40705 140.214 4.63681 140.786 4.02062C141.359 3.38731 142.049 2.90805 142.858 2.58283C143.666 2.2405 144.576 2.06934 145.586 2.06934C146.63 2.06934 147.557 2.22338 148.365 2.53148C149.173 2.83958 149.847 3.28461 150.386 3.86657C150.942 4.44853 151.354 5.15031 151.624 5.9719C151.91 6.79349 152.053 7.71778 152.053 8.74477V9.20692H148.719V8.74477C148.719 8.31686 148.668 7.88895 148.567 7.46104C148.466 7.03312 148.298 6.648 148.062 6.30567C147.826 5.96334 147.506 5.68948 147.102 5.48408C146.698 5.26156 146.192 5.15031 145.586 5.15031C145.03 5.15031 144.55 5.26156 144.146 5.48408C143.742 5.68948 143.405 5.98046 143.136 6.35702C142.866 6.71647 142.664 7.14438 142.529 7.64076C142.411 8.12002 142.352 8.62496 142.352 9.15557V13.6743C142.352 14.2563 142.411 14.7955 142.529 15.2918C142.647 15.7711 142.832 16.1905 143.085 16.5499C143.338 16.9093 143.666 17.1918 144.07 17.3972C144.491 17.5854 144.997 17.6796 145.586 17.6796Z" fill="#000655"/>
<path d="M154.815 2.42878H158.149V9.77176H163.858V2.42878H167.193V20.4011H163.858V13.0068H158.149V20.4011H154.815V2.42878Z" fill="#000655"/>
<path d="M9.87052 23C11.7363 23 13.5261 22.2609 14.8483 20.9444L35.8826 2.37826e-07L30.4417 0C28.5759 -8.15565e-08 26.7861 0.739123 25.464 2.05561L4.42969 23H9.87052Z" fill="#2F6EF6"/>
<path d="M21.7763 2.13867L10.415 13.4862C9.09219 14.8074 7.2991 15.5495 5.42955 15.5495H0L11.3614 4.20191C12.6842 2.88075 14.4773 2.13867 16.3468 2.13867L21.7763 2.13867Z" fill="#5F98FF"/>
<path d="M23.3227 21.4873C25.1868 21.4873 26.975 20.7496 28.2969 19.4353L34.1273 13.6382L28.6835 13.6382C26.8195 13.6382 25.0312 14.3759 23.7094 15.6902L17.8789 21.4873H23.3227Z" fill="#F9B83A"/>
</svg>
