<svg width="516" height="40" viewBox="0 0 516 40" fill="none" xmlns="http://www.w3.org/2000/svg">
<path d="M8.6 30V5.92H1.49012e-08V2H21.52V5.92H12.92V30H8.6ZM30.7284 30.56C28.7284 30.56 26.9818 30.1467 25.4884 29.32C23.9951 28.4667 22.8218 27.28 21.9684 25.76C21.1418 24.2133 20.7284 22.4267 20.7284 20.4V19.92C20.7284 17.8667 21.1418 16.08 21.9684 14.56C22.7951 13.0133 23.9418 11.8267 25.4084 11C26.9018 10.1467 28.6218 9.72 30.5684 9.72C32.4618 9.72 34.1151 10.1467 35.5284 11C36.9684 11.8267 38.0884 12.9867 38.8884 14.48C39.6884 15.9733 40.0884 17.72 40.0884 19.72V21.28H24.9284C24.9818 23.0133 25.5551 24.4 26.6484 25.44C27.7684 26.4533 29.1551 26.96 30.8084 26.96C32.3551 26.96 33.5151 26.6133 34.2884 25.92C35.0884 25.2267 35.7018 24.4267 36.1284 23.52L39.5284 25.28C39.1551 26.0267 38.6084 26.8133 37.8884 27.64C37.1951 28.4667 36.2751 29.16 35.1284 29.72C33.9818 30.28 32.5151 30.56 30.7284 30.56ZM24.9684 18.12H35.8884C35.7818 16.6267 35.2484 15.4667 34.2884 14.64C33.3284 13.7867 32.0751 13.36 30.5284 13.36C28.9818 13.36 27.7151 13.7867 26.7284 14.64C25.7684 15.4667 25.1818 16.6267 24.9684 18.12ZM54.2078 30.56C52.3145 30.56 50.5945 30.16 49.0478 29.36C47.5278 28.56 46.3145 27.4 45.4078 25.88C44.5278 24.36 44.0878 22.5333 44.0878 20.4V19.88C44.0878 17.7467 44.5278 15.9333 45.4078 14.44C46.3145 12.92 47.5278 11.76 49.0478 10.96C50.5945 10.1333 52.3145 9.72 54.2078 9.72C56.1011 9.72 57.7145 10.0667 59.0478 10.76C60.3811 11.4533 61.4478 12.3733 62.2478 13.52C63.0745 14.6667 63.6078 15.9333 63.8478 17.32L59.8478 18.16C59.7145 17.28 59.4345 16.48 59.0078 15.76C58.5811 15.04 57.9811 14.4667 57.2078 14.04C56.4345 13.6133 55.4611 13.4 54.2878 13.4C53.1411 13.4 52.1011 13.6667 51.1678 14.2C50.2611 14.7067 49.5411 15.4533 49.0078 16.44C48.4745 17.4 48.2078 18.5733 48.2078 19.96V20.32C48.2078 21.7067 48.4745 22.8933 49.0078 23.88C49.5411 24.8667 50.2611 25.6133 51.1678 26.12C52.1011 26.6267 53.1411 26.88 54.2878 26.88C56.0211 26.88 57.3411 26.44 58.2478 25.56C59.1545 24.6533 59.7278 23.5067 59.9678 22.12L63.9678 23.04C63.6478 24.4 63.0745 25.6533 62.2478 26.8C61.4478 27.9467 60.3811 28.8667 59.0478 29.56C57.7145 30.2267 56.1011 30.56 54.2078 30.56ZM68.7197 30V2H72.8397V13.08H73.4797C73.7464 12.5733 74.1197 12.08 74.5997 11.6C75.1064 11.12 75.7597 10.7333 76.5597 10.44C77.3864 10.12 78.4264 9.96 79.6797 9.96C81.173 9.96 82.493 10.2933 83.6397 10.96C84.813 11.6267 85.733 12.5733 86.3997 13.8C87.0664 15 87.3997 16.4533 87.3997 18.16V30H83.2797V18.48C83.2797 16.7733 82.853 15.52 81.9997 14.72C81.1464 13.8933 79.973 13.48 78.4797 13.48C76.773 13.48 75.3997 14.04 74.3597 15.16C73.3464 16.28 72.8397 17.9067 72.8397 20.04V30H68.7197ZM103.404 30V2H107.724V26.08H121.204V30H103.404ZM134.244 30.56C132.244 30.56 130.497 30.1467 129.004 29.32C127.511 28.4667 126.337 27.28 125.484 25.76C124.657 24.2133 124.244 22.4267 124.244 20.4V19.92C124.244 17.8667 124.657 16.08 125.484 14.56C126.311 13.0133 127.457 11.8267 128.924 11C130.417 10.1467 132.137 9.72 134.084 9.72C135.977 9.72 137.631 10.1467 139.044 11C140.484 11.8267 141.604 12.9867 142.404 14.48C143.204 15.9733 143.604 17.72 143.604 19.72V21.28H128.444C128.497 23.0133 129.071 24.4 130.164 25.44C131.284 26.4533 132.671 26.96 134.324 26.96C135.871 26.96 137.031 26.6133 137.804 25.92C138.604 25.2267 139.217 24.4267 139.644 23.52L143.044 25.28C142.671 26.0267 142.124 26.8133 141.404 27.64C140.711 28.4667 139.791 29.16 138.644 29.72C137.497 30.28 136.031 30.56 134.244 30.56ZM128.484 18.12H139.404C139.297 16.6267 138.764 15.4667 137.804 14.64C136.844 13.7867 135.591 13.36 134.044 13.36C132.497 13.36 131.231 13.7867 130.244 14.64C129.284 15.4667 128.697 16.6267 128.484 18.12ZM154.683 30.56C153.27 30.56 152.003 30.32 150.883 29.84C149.79 29.36 148.91 28.6533 148.243 27.72C147.603 26.7867 147.283 25.6533 147.283 24.32C147.283 22.96 147.603 21.84 148.243 20.96C148.91 20.0533 149.803 19.3733 150.923 18.92C152.07 18.4667 153.363 18.24 154.803 18.24H160.803V16.96C160.803 15.8133 160.457 14.8933 159.763 14.2C159.07 13.5067 158.003 13.16 156.563 13.16C155.15 13.16 154.07 13.4933 153.323 14.16C152.577 14.8267 152.083 15.6933 151.843 16.76L148.003 15.52C148.323 14.4533 148.83 13.4933 149.523 12.64C150.243 11.76 151.19 11.0533 152.363 10.52C153.537 9.98667 154.95 9.72 156.603 9.72C159.163 9.72 161.177 10.3733 162.643 11.68C164.11 12.9867 164.843 14.84 164.843 17.24V25.36C164.843 26.16 165.217 26.56 165.963 26.56H167.643V30H164.563C163.63 30 162.87 29.76 162.283 29.28C161.697 28.8 161.403 28.1467 161.403 27.32V27.2H160.803C160.59 27.6 160.27 28.0667 159.843 28.6C159.417 29.1333 158.79 29.6 157.963 30C157.137 30.3733 156.043 30.56 154.683 30.56ZM155.283 27.16C156.937 27.16 158.27 26.6933 159.283 25.76C160.297 24.8 160.803 23.4933 160.803 21.84V21.44H155.043C153.95 21.44 153.07 21.68 152.403 22.16C151.737 22.6133 151.403 23.2933 151.403 24.2C151.403 25.1067 151.75 25.8267 152.443 26.36C153.137 26.8933 154.083 27.16 155.283 27.16ZM179.341 30.56C177.714 30.56 176.207 30.16 174.821 29.36C173.434 28.56 172.314 27.4133 171.461 25.92C170.634 24.4 170.221 22.5733 170.221 20.44V19.84C170.221 17.7333 170.634 15.92 171.461 14.4C172.287 12.88 173.394 11.72 174.781 10.92C176.167 10.12 177.687 9.72 179.341 9.72C180.621 9.72 181.687 9.88 182.541 10.2C183.421 10.52 184.141 10.9333 184.701 11.44C185.261 11.92 185.687 12.4267 185.981 12.96H186.621V2H190.741V30H186.701V27.2H186.061C185.554 28.0533 184.781 28.8267 183.741 29.52C182.727 30.2133 181.261 30.56 179.341 30.56ZM180.501 26.96C182.287 26.96 183.754 26.3867 184.901 25.24C186.074 24.0933 186.661 22.4533 186.661 20.32V19.96C186.661 17.8533 186.087 16.2267 184.941 15.08C183.794 13.9333 182.314 13.36 180.501 13.36C178.741 13.36 177.274 13.9333 176.101 15.08C174.954 16.2267 174.381 17.8533 174.381 19.96V20.32C174.381 22.4533 174.954 24.0933 176.101 25.24C177.274 26.3867 178.741 26.96 180.501 26.96ZM219.161 39.6C216.388 39.6 214.028 39.12 212.081 38.16C210.134 37.2 208.654 35.6933 207.641 33.64C206.654 31.6133 206.161 29 206.161 25.8V13.8C206.161 10.6 206.654 7.98667 207.641 5.96C208.654 3.90667 210.134 2.4 212.081 1.44C214.028 0.479998 216.388 -2.38419e-06 219.161 -2.38419e-06V3.52C216.121 3.54667 213.854 4.41333 212.361 6.12C210.894 7.8 210.161 10.4133 210.161 13.96V25.64C210.161 29.1867 210.894 31.8 212.361 33.48C213.854 35.1867 216.121 36.0533 219.161 36.08V39.6ZM225.028 30.56C224.094 30.56 223.308 30.2533 222.668 29.64C222.054 29.0267 221.748 28.24 221.748 27.28C221.748 26.32 222.054 25.5467 222.668 24.96C223.308 24.3467 224.094 24.04 225.028 24.04C225.961 24.04 226.734 24.3467 227.348 24.96C227.988 25.5733 228.308 26.3467 228.308 27.28C228.308 28.24 227.988 29.0267 227.348 29.64C226.734 30.2533 225.961 30.56 225.028 30.56ZM233.483 30V2H241.803L249.403 27.12H250.043V2H254.323V30H246.003L238.403 4.84H237.763V30H233.483ZM269.322 30.56C267.322 30.56 265.576 30.1467 264.082 29.32C262.589 28.4667 261.416 27.28 260.562 25.76C259.736 24.2133 259.322 22.4267 259.322 20.4V19.92C259.322 17.8667 259.736 16.08 260.562 14.56C261.389 13.0133 262.536 11.8267 264.002 11C265.496 10.1467 267.216 9.72 269.162 9.72C271.056 9.72 272.709 10.1467 274.122 11C275.562 11.8267 276.682 12.9867 277.482 14.48C278.282 15.9733 278.682 17.72 278.682 19.72V21.28H263.522C263.576 23.0133 264.149 24.4 265.242 25.44C266.362 26.4533 267.749 26.96 269.402 26.96C270.949 26.96 272.109 26.6133 272.882 25.92C273.682 25.2267 274.296 24.4267 274.722 23.52L278.122 25.28C277.749 26.0267 277.202 26.8133 276.482 27.64C275.789 28.4667 274.869 29.16 273.722 29.72C272.576 30.28 271.109 30.56 269.322 30.56ZM263.562 18.12H274.482C274.376 16.6267 273.842 15.4667 272.882 14.64C271.922 13.7867 270.669 13.36 269.122 13.36C267.576 13.36 266.309 13.7867 265.322 14.64C264.362 15.4667 263.776 16.6267 263.562 18.12ZM290.338 30C289.138 30 288.178 29.64 287.458 28.92C286.765 28.2 286.418 27.24 286.418 26.04V13.76H280.978V10.28H286.418V3.76H290.538V10.28H296.418V13.76H290.538V25.32C290.538 26.12 290.912 26.52 291.658 26.52H295.778V30H290.338ZM298.339 39.6V36.08C301.432 36.0533 303.712 35.1867 305.179 33.48C306.645 31.8 307.379 29.1867 307.379 25.64V13.96C307.379 10.4133 306.645 7.8 305.179 6.12C303.712 4.41333 301.432 3.54667 298.339 3.52V-2.38419e-06C301.139 -2.38419e-06 303.499 0.479998 305.419 1.44C307.365 2.4 308.832 3.90667 309.819 5.96C310.832 7.98667 311.339 10.6 311.339 13.8V25.8C311.339 29 310.832 31.6133 309.819 33.64C308.832 35.6933 307.365 37.2 305.419 38.16C303.499 39.12 301.139 39.6 298.339 39.6ZM325.607 30V26.16H329.367V5.84H325.607V2H336.807C340.54 2 343.393 2.94667 345.367 4.84C347.367 6.73333 348.367 9.58667 348.367 13.4V18.64C348.367 22.4533 347.367 25.3067 345.367 27.2C343.393 29.0667 340.54 30 336.807 30H325.607ZM333.727 26.08H336.847C339.273 26.08 341.073 25.4667 342.247 24.24C343.42 23.0133 344.007 21.1867 344.007 18.76V13.24C344.007 10.7867 343.42 8.96 342.247 7.76C341.073 6.56 339.273 5.96 336.847 5.96H333.727V26.08ZM362.408 30.56C360.408 30.56 358.661 30.1467 357.168 29.32C355.675 28.4667 354.501 27.28 353.648 25.76C352.821 24.2133 352.408 22.4267 352.408 20.4V19.92C352.408 17.8667 352.821 16.08 353.648 14.56C354.475 13.0133 355.621 11.8267 357.088 11C358.581 10.1467 360.301 9.72 362.248 9.72C364.141 9.72 365.795 10.1467 367.208 11C368.648 11.8267 369.768 12.9867 370.568 14.48C371.368 15.9733 371.768 17.72 371.768 19.72V21.28H356.608C356.661 23.0133 357.235 24.4 358.328 25.44C359.448 26.4533 360.835 26.96 362.488 26.96C364.035 26.96 365.195 26.6133 365.968 25.92C366.768 25.2267 367.381 24.4267 367.808 23.52L371.208 25.28C370.835 26.0267 370.288 26.8133 369.568 27.64C368.875 28.4667 367.955 29.16 366.808 29.72C365.661 30.28 364.195 30.56 362.408 30.56ZM356.648 18.12H367.568C367.461 16.6267 366.928 15.4667 365.968 14.64C365.008 13.7867 363.755 13.36 362.208 13.36C360.661 13.36 359.395 13.7867 358.408 14.64C357.448 15.4667 356.861 16.6267 356.648 18.12ZM380.623 30L373.983 10.28H378.343L383.583 26.96H384.223L389.463 10.28H393.823L387.183 30H380.623ZM406.197 30.56C404.197 30.56 402.451 30.1467 400.957 29.32C399.464 28.4667 398.291 27.28 397.437 25.76C396.611 24.2133 396.197 22.4267 396.197 20.4V19.92C396.197 17.8667 396.611 16.08 397.437 14.56C398.264 13.0133 399.411 11.8267 400.877 11C402.371 10.1467 404.091 9.72 406.037 9.72C407.931 9.72 409.584 10.1467 410.997 11C412.437 11.8267 413.557 12.9867 414.357 14.48C415.157 15.9733 415.557 17.72 415.557 19.72V21.28H400.397C400.451 23.0133 401.024 24.4 402.117 25.44C403.237 26.4533 404.624 26.96 406.277 26.96C407.824 26.96 408.984 26.6133 409.757 25.92C410.557 25.2267 411.171 24.4267 411.597 23.52L414.997 25.28C414.624 26.0267 414.077 26.8133 413.357 27.64C412.664 28.4667 411.744 29.16 410.597 29.72C409.451 30.28 407.984 30.56 406.197 30.56ZM400.437 18.12H411.357C411.251 16.6267 410.717 15.4667 409.757 14.64C408.797 13.7867 407.544 13.36 405.997 13.36C404.451 13.36 403.184 13.7867 402.197 14.64C401.237 15.4667 400.651 16.6267 400.437 18.12ZM420.517 30V2H424.637V30H420.517ZM439.991 30.56C438.018 30.56 436.258 30.16 434.711 29.36C433.191 28.5333 431.991 27.36 431.111 25.84C430.231 24.32 429.791 22.52 429.791 20.44V19.84C429.791 17.76 430.231 15.9733 431.111 14.48C431.991 12.96 433.191 11.7867 434.711 10.96C436.258 10.1333 438.018 9.72 439.991 9.72C441.964 9.72 443.724 10.1333 445.271 10.96C446.818 11.7867 448.031 12.96 448.911 14.48C449.791 15.9733 450.231 17.76 450.231 19.84V20.44C450.231 22.52 449.791 24.32 448.911 25.84C448.031 27.36 446.818 28.5333 445.271 29.36C443.724 30.16 441.964 30.56 439.991 30.56ZM439.991 26.88C441.804 26.88 443.271 26.3067 444.391 25.16C445.538 23.9867 446.111 22.3733 446.111 20.32V19.96C446.111 17.9067 445.551 16.3067 444.431 15.16C443.311 13.9867 441.831 13.4 439.991 13.4C438.204 13.4 436.738 13.9867 435.591 15.16C434.471 16.3067 433.911 17.9067 433.911 19.96V20.32C433.911 22.3733 434.471 23.9867 435.591 25.16C436.738 26.3067 438.204 26.88 439.991 26.88ZM455.36 38V10.28H459.4V13.12H460.04C460.547 12.24 461.307 11.4533 462.32 10.76C463.36 10.0667 464.84 9.72 466.76 9.72C468.414 9.72 469.92 10.12 471.28 10.92C472.667 11.72 473.774 12.88 474.6 14.4C475.454 15.8933 475.88 17.7067 475.88 19.84V20.44C475.88 22.5733 475.467 24.4 474.64 25.92C473.814 27.4133 472.707 28.56 471.32 29.36C469.934 30.16 468.414 30.56 466.76 30.56C465.48 30.56 464.4 30.4 463.52 30.08C462.64 29.76 461.934 29.36 461.4 28.88C460.867 28.3733 460.44 27.8533 460.12 27.32H459.48V38H455.36ZM465.56 26.96C467.374 26.96 468.854 26.3867 470 25.24C471.147 24.0933 471.72 22.4533 471.72 20.32V19.96C471.72 17.8533 471.134 16.2267 469.96 15.08C468.814 13.9333 467.347 13.36 465.56 13.36C463.8 13.36 462.334 13.9333 461.16 15.08C460.014 16.2267 459.44 17.8533 459.44 19.96V20.32C459.44 22.4533 460.014 24.0933 461.16 25.24C462.334 26.3867 463.8 26.96 465.56 26.96ZM490.025 30.56C488.025 30.56 486.279 30.1467 484.785 29.32C483.292 28.4667 482.119 27.28 481.265 25.76C480.439 24.2133 480.025 22.4267 480.025 20.4V19.92C480.025 17.8667 480.439 16.08 481.265 14.56C482.092 13.0133 483.239 11.8267 484.705 11C486.199 10.1467 487.919 9.72 489.865 9.72C491.759 9.72 493.412 10.1467 494.825 11C496.265 11.8267 497.385 12.9867 498.185 14.48C498.985 15.9733 499.385 17.72 499.385 19.72V21.28H484.225C484.279 23.0133 484.852 24.4 485.945 25.44C487.065 26.4533 488.452 26.96 490.105 26.96C491.652 26.96 492.812 26.6133 493.585 25.92C494.385 25.2267 494.999 24.4267 495.425 23.52L498.825 25.28C498.452 26.0267 497.905 26.8133 497.185 27.64C496.492 28.4667 495.572 29.16 494.425 29.72C493.279 30.28 491.812 30.56 490.025 30.56ZM484.265 18.12H495.185C495.079 16.6267 494.545 15.4667 493.585 14.64C492.625 13.7867 491.372 13.36 489.825 13.36C488.279 13.36 487.012 13.7867 486.025 14.64C485.065 15.4667 484.479 16.6267 484.265 18.12ZM504.345 30V10.28H508.385V12.6H509.025C509.345 11.7733 509.851 11.1733 510.545 10.8C511.265 10.4 512.145 10.2 513.185 10.2H515.545V13.92H513.025C511.691 13.92 510.598 14.2933 509.745 15.04C508.891 15.76 508.465 16.88 508.465 18.4V30H504.345Z" fill="#D3DDE9"/>
</svg>
