<svg width="239" height="36" viewBox="0 0 239 36" fill="none" xmlns="http://www.w3.org/2000/svg">
<path d="M4.44 28L0.32 -1.90735e-06H4.64L8 25.08H8.64L12.96 -1.90735e-06H20.52L24.84 25.08H25.48L28.8 -1.90735e-06H33.12L29 28H21.44L17.04 2.56H16.4L12.04 28H4.44ZM46.1581 28.56C44.1581 28.56 42.4115 28.1467 40.9181 27.32C39.4248 26.4667 38.2515 25.28 37.3981 23.76C36.5715 22.2133 36.1581 20.4267 36.1581 18.4V17.92C36.1581 15.8667 36.5715 14.08 37.3981 12.56C38.2248 11.0133 39.3715 9.82667 40.8381 9C42.3315 8.14667 44.0515 7.72 45.9981 7.72C47.8915 7.72 49.5448 8.14667 50.9581 9C52.3981 9.82667 53.5181 10.9867 54.3181 12.48C55.1181 13.9733 55.5181 15.72 55.5181 17.72V19.28H40.3581C40.4115 21.0133 40.9848 22.4 42.0781 23.44C43.1981 24.4533 44.5848 24.96 46.2381 24.96C47.7848 24.96 48.9448 24.6133 49.7181 23.92C50.5181 23.2267 51.1315 22.4267 51.5581 21.52L54.9581 23.28C54.5848 24.0267 54.0381 24.8133 53.3181 25.64C52.6248 26.4667 51.7048 27.16 50.5581 27.72C49.4115 28.28 47.9448 28.56 46.1581 28.56ZM40.3981 16.12H51.3181C51.2115 14.6267 50.6781 13.4667 49.7181 12.64C48.7581 11.7867 47.5048 11.36 45.9581 11.36C44.4115 11.36 43.1448 11.7867 42.1581 12.64C41.1981 13.4667 40.6115 14.6267 40.3981 16.12ZM71.8775 28.56C69.9575 28.56 68.4775 28.2133 67.4375 27.52C66.4242 26.8267 65.6642 26.0533 65.1575 25.2H64.5175V28H60.4775V-1.90735e-06H64.5975V10.96H65.2375C65.5575 10.4267 65.9842 9.92 66.5175 9.44C67.0508 8.93333 67.7575 8.52 68.6375 8.2C69.5175 7.88 70.5975 7.72 71.8775 7.72C73.5308 7.72 75.0508 8.12 76.4375 8.92C77.8242 9.72 78.9308 10.88 79.7575 12.4C80.5842 13.92 80.9975 15.7333 80.9975 17.84V18.44C80.9975 20.5733 80.5708 22.4 79.7175 23.92C78.8908 25.4133 77.7842 26.56 76.3975 27.36C75.0375 28.16 73.5308 28.56 71.8775 28.56ZM70.6775 24.96C72.4642 24.96 73.9308 24.3867 75.0775 23.24C76.2508 22.0933 76.8375 20.4533 76.8375 18.32V17.96C76.8375 15.8533 76.2642 14.2267 75.1175 13.08C73.9708 11.9333 72.4908 11.36 70.6775 11.36C68.9175 11.36 67.4508 11.9333 66.2775 13.08C65.1308 14.2267 64.5575 15.8533 64.5575 17.96V18.32C64.5575 20.4533 65.1308 22.0933 66.2775 23.24C67.4508 24.3867 68.9175 24.96 70.6775 24.96ZM95.2225 28.56C93.1692 28.56 91.3425 28.1867 89.7425 27.44C88.1425 26.6933 86.8892 25.6133 85.9825 24.2C85.1025 22.7867 84.6625 21.1067 84.6625 19.16V18.44H88.8625V19.08C88.8625 20.84 89.4358 22.24 90.5825 23.28C91.7558 24.2933 93.3025 24.8 95.2225 24.8C97.1425 24.8 98.6358 24.32 99.7025 23.36C100.769 22.4 101.303 21.1867 101.303 19.72V19.36C101.303 18.32 101.049 17.48 100.543 16.84C100.036 16.2 99.3558 15.7333 98.5025 15.44C97.6492 15.12 96.6892 14.96 95.6225 14.96H90.5425V10.12L100.383 4.32V3.76H85.3425V-1.90735e-06H104.943V5.68L95.5425 11.28V11.84H97.2625C98.6758 11.84 100.009 12.1067 101.263 12.64C102.516 13.1733 103.529 13.9867 104.303 15.08C105.103 16.1733 105.503 17.56 105.503 19.24V19.72C105.503 21.5067 105.076 23.0667 104.223 24.4C103.369 25.7067 102.169 26.7333 100.623 27.48C99.0758 28.2 97.2758 28.56 95.2225 28.56ZM128.716 28.56C127.089 28.56 125.582 28.16 124.196 27.36C122.809 26.56 121.689 25.4133 120.836 23.92C120.009 22.4 119.596 20.5733 119.596 18.44V17.84C119.596 15.7333 120.009 13.92 120.836 12.4C121.662 10.88 122.769 9.72 124.156 8.92C125.542 8.12 127.062 7.72 128.716 7.72C129.996 7.72 131.062 7.88 131.916 8.2C132.796 8.52 133.516 8.93333 134.076 9.44C134.636 9.92 135.062 10.4267 135.356 10.96H135.996V-1.90735e-06H140.116V28H136.076V25.2H135.436C134.929 26.0533 134.156 26.8267 133.116 27.52C132.102 28.2133 130.636 28.56 128.716 28.56ZM129.876 24.96C131.662 24.96 133.129 24.3867 134.276 23.24C135.449 22.0933 136.036 20.4533 136.036 18.32V17.96C136.036 15.8533 135.462 14.2267 134.316 13.08C133.169 11.9333 131.689 11.36 129.876 11.36C128.116 11.36 126.649 11.9333 125.476 13.08C124.329 14.2267 123.756 15.8533 123.756 17.96V18.32C123.756 20.4533 124.329 22.0933 125.476 23.24C126.649 24.3867 128.116 24.96 129.876 24.96ZM143.981 28L151.981 -1.90735e-06H159.581L167.541 28H163.101L161.261 21.4H150.301L148.461 28H143.981ZM151.381 17.4H160.181L156.101 2.68H155.461L151.381 17.4ZM171.454 36V8.28H175.494V11.12H176.134C176.641 10.24 177.401 9.45333 178.414 8.76C179.454 8.06667 180.934 7.72 182.854 7.72C184.507 7.72 186.014 8.12 187.374 8.92C188.761 9.72 189.867 10.88 190.694 12.4C191.547 13.8933 191.974 15.7067 191.974 17.84V18.44C191.974 20.5733 191.561 22.4 190.734 23.92C189.907 25.4133 188.801 26.56 187.414 27.36C186.027 28.16 184.507 28.56 182.854 28.56C181.574 28.56 180.494 28.4 179.614 28.08C178.734 27.76 178.027 27.36 177.494 26.88C176.961 26.3733 176.534 25.8533 176.214 25.32H175.574V36H171.454ZM181.654 24.96C183.467 24.96 184.947 24.3867 186.094 23.24C187.241 22.0933 187.814 20.4533 187.814 18.32V17.96C187.814 15.8533 187.227 14.2267 186.054 13.08C184.907 11.9333 183.441 11.36 181.654 11.36C179.894 11.36 178.427 11.9333 177.254 13.08C176.107 14.2267 175.534 15.8533 175.534 17.96V18.32C175.534 20.4533 176.107 22.0933 177.254 23.24C178.427 24.3867 179.894 24.96 181.654 24.96ZM197.079 36V8.28H201.119V11.12H201.759C202.266 10.24 203.026 9.45333 204.039 8.76C205.079 8.06667 206.559 7.72 208.479 7.72C210.132 7.72 211.639 8.12 212.999 8.92C214.386 9.72 215.492 10.88 216.319 12.4C217.172 13.8933 217.599 15.7067 217.599 17.84V18.44C217.599 20.5733 217.186 22.4 216.359 23.92C215.532 25.4133 214.426 26.56 213.039 27.36C211.652 28.16 210.132 28.56 208.479 28.56C207.199 28.56 206.119 28.4 205.239 28.08C204.359 27.76 203.652 27.36 203.119 26.88C202.586 26.3733 202.159 25.8533 201.839 25.32H201.199V36H197.079ZM207.279 24.96C209.092 24.96 210.572 24.3867 211.719 23.24C212.866 22.0933 213.439 20.4533 213.439 18.32V17.96C213.439 15.8533 212.852 14.2267 211.679 13.08C210.532 11.9333 209.066 11.36 207.279 11.36C205.519 11.36 204.052 11.9333 202.879 13.08C201.732 14.2267 201.159 15.8533 201.159 17.96V18.32C201.159 20.4533 201.732 22.0933 202.879 23.24C204.052 24.3867 205.519 24.96 207.279 24.96ZM230.784 28.56C228.277 28.56 226.197 28 224.544 26.88C222.891 25.76 221.877 24.0667 221.504 21.8L225.344 20.88C225.557 21.9733 225.917 22.84 226.424 23.48C226.931 24.12 227.557 24.5733 228.304 24.84C229.077 25.1067 229.904 25.24 230.784 25.24C232.091 25.24 233.091 24.9867 233.784 24.48C234.504 23.9733 234.864 23.32 234.864 22.52C234.864 21.72 234.531 21.1333 233.864 20.76C233.197 20.3867 232.211 20.08 230.904 19.84L229.544 19.6C228.211 19.36 226.997 19.0133 225.904 18.56C224.811 18.1067 223.944 17.48 223.304 16.68C222.664 15.88 222.344 14.8533 222.344 13.6C222.344 11.7333 223.037 10.2933 224.424 9.28C225.811 8.24 227.651 7.72 229.944 7.72C232.157 7.72 233.971 8.22667 235.384 9.24C236.824 10.2267 237.757 11.5733 238.184 13.28L234.344 14.36C234.104 13.16 233.597 12.32 232.824 11.84C232.051 11.3333 231.091 11.08 229.944 11.08C228.824 11.08 227.944 11.2933 227.304 11.72C226.664 12.12 226.344 12.6933 226.344 13.44C226.344 14.24 226.651 14.8267 227.264 15.2C227.904 15.5733 228.757 15.8533 229.824 16.04L231.224 16.28C232.637 16.52 233.931 16.8533 235.104 17.28C236.277 17.7067 237.197 18.32 237.864 19.12C238.557 19.92 238.904 20.9867 238.904 22.32C238.904 24.2933 238.171 25.8267 236.704 26.92C235.237 28.0133 233.264 28.56 230.784 28.56Z" fill="#000655"/>
</svg>
