<svg width="550" height="37" viewBox="0 0 550 37" fill="none" xmlns="http://www.w3.org/2000/svg">
<path d="M0.92 29V0.999998H18.2V4.92H5.24V13H17.16V16.92H5.24V29H0.92ZM22.5244 29V9.28H26.5644V11.6H27.2044C27.5244 10.7733 28.031 10.1733 28.7244 9.8C29.4444 9.4 30.3244 9.2 31.3644 9.2H33.7244V12.92H31.2044C29.871 12.92 28.7777 13.2933 27.9244 14.04C27.071 14.76 26.6444 15.88 26.6444 17.4V29H22.5244ZM46.53 29.56C44.5567 29.56 42.7967 29.16 41.25 28.36C39.73 27.5333 38.53 26.36 37.65 24.84C36.77 23.32 36.33 21.52 36.33 19.44V18.84C36.33 16.76 36.77 14.9733 37.65 13.48C38.53 11.96 39.73 10.7867 41.25 9.96C42.7967 9.13333 44.5567 8.72 46.53 8.72C48.5033 8.72 50.2633 9.13333 51.81 9.96C53.3567 10.7867 54.57 11.96 55.45 13.48C56.33 14.9733 56.77 16.76 56.77 18.84V19.44C56.77 21.52 56.33 23.32 55.45 24.84C54.57 26.36 53.3567 27.5333 51.81 28.36C50.2633 29.16 48.5033 29.56 46.53 29.56ZM46.53 25.88C48.3433 25.88 49.81 25.3067 50.93 24.16C52.0767 22.9867 52.65 21.3733 52.65 19.32V18.96C52.65 16.9067 52.09 15.3067 50.97 14.16C49.85 12.9867 48.37 12.4 46.53 12.4C44.7433 12.4 43.2767 12.9867 42.13 14.16C41.01 15.3067 40.45 16.9067 40.45 18.96V19.32C40.45 21.3733 41.01 22.9867 42.13 24.16C43.2767 25.3067 44.7433 25.88 46.53 25.88ZM61.8994 29V9.28H65.9394V12.24H66.5794C66.9527 11.44 67.6194 10.6933 68.5794 10C69.5394 9.30667 70.966 8.96 72.8594 8.96C74.3527 8.96 75.6727 9.29333 76.8194 9.96C77.9927 10.6267 78.9127 11.5733 79.5794 12.8C80.246 14 80.5794 15.4533 80.5794 17.16V29H76.4594V17.48C76.4594 15.7733 76.0327 14.52 75.1794 13.72C74.326 12.8933 73.1527 12.48 71.6594 12.48C69.9527 12.48 68.5794 13.04 67.5394 14.16C66.526 15.28 66.0194 16.9067 66.0194 19.04V29H61.8994ZM93.3619 29C92.1619 29 91.2019 28.64 90.4819 27.92C89.7885 27.2 89.4419 26.24 89.4419 25.04V12.76H84.0019V9.28H89.4419V2.76H93.5619V9.28H99.4419V12.76H93.5619V24.32C93.5619 25.12 93.9352 25.52 94.6819 25.52H98.8019V29H93.3619ZM114.358 29V0.999998H131.997V4.92H118.678V12.96H130.878V16.88H118.678V25.08H132.198V29H114.358ZM136.821 29V9.28H140.861V12.24H141.501C141.875 11.44 142.541 10.6933 143.501 10C144.461 9.30667 145.888 8.96 147.781 8.96C149.275 8.96 150.595 9.29333 151.741 9.96C152.915 10.6267 153.835 11.5733 154.501 12.8C155.168 14 155.501 15.4533 155.501 17.16V29H151.381V17.48C151.381 15.7733 150.955 14.52 150.101 13.72C149.248 12.8933 148.075 12.48 146.581 12.48C144.875 12.48 143.501 13.04 142.461 14.16C141.448 15.28 140.941 16.9067 140.941 19.04V29H136.821ZM169.591 29.56C167.964 29.56 166.457 29.16 165.071 28.36C163.684 27.56 162.564 26.4133 161.711 24.92C160.884 23.4 160.471 21.5733 160.471 19.44V18.84C160.471 16.7333 160.884 14.92 161.711 13.4C162.537 11.88 163.644 10.72 165.031 9.92C166.417 9.12 167.937 8.72 169.591 8.72C170.871 8.72 171.937 8.88 172.791 9.2C173.671 9.52 174.391 9.93333 174.951 10.44C175.511 10.92 175.937 11.4267 176.231 11.96H176.871V0.999998H180.991V29H176.951V26.2H176.311C175.804 27.0533 175.031 27.8267 173.991 28.52C172.977 29.2133 171.511 29.56 169.591 29.56ZM170.751 25.96C172.537 25.96 174.004 25.3867 175.151 24.24C176.324 23.0933 176.911 21.4533 176.911 19.32V18.96C176.911 16.8533 176.337 15.2267 175.191 14.08C174.044 12.9333 172.564 12.36 170.751 12.36C168.991 12.36 167.524 12.9333 166.351 14.08C165.204 15.2267 164.631 16.8533 164.631 18.96V19.32C164.631 21.4533 165.204 23.0933 166.351 24.24C167.524 25.3867 168.991 25.96 170.751 25.96ZM206.651 29.56C204.544 29.56 202.678 29.1867 201.051 28.44C199.424 27.6933 198.144 26.6 197.211 25.16C196.304 23.6933 195.851 21.92 195.851 19.84V18.84H200.131V19.84C200.131 21.8133 200.718 23.2933 201.891 24.28C203.091 25.2667 204.678 25.76 206.651 25.76C208.651 25.76 210.158 25.3467 211.171 24.52C212.184 23.6667 212.691 22.5733 212.691 21.24C212.691 20.36 212.451 19.64 211.971 19.08C211.491 18.52 210.811 18.08 209.931 17.76C209.051 17.4133 207.998 17.0933 206.771 16.8L205.291 16.44C203.504 16.0133 201.944 15.4933 200.611 14.88C199.304 14.24 198.291 13.4 197.571 12.36C196.851 11.32 196.491 9.98667 196.491 8.36C196.491 6.70667 196.891 5.29333 197.691 4.12C198.518 2.94667 199.651 2.04 201.091 1.4C202.531 0.759998 204.224 0.439998 206.171 0.439998C208.118 0.439998 209.851 0.773332 211.371 1.44C212.918 2.10667 214.131 3.09333 215.011 4.4C215.891 5.70667 216.331 7.34667 216.331 9.32V10.76H212.051V9.32C212.051 8.12 211.798 7.14667 211.291 6.4C210.811 5.65333 210.131 5.10667 209.251 4.76C208.371 4.41333 207.344 4.24 206.171 4.24C204.464 4.24 203.131 4.6 202.171 5.32C201.238 6.01333 200.771 6.98666 200.771 8.24C200.771 9.09333 200.971 9.8 201.371 10.36C201.798 10.8933 202.411 11.3333 203.211 11.68C204.011 12.0267 205.011 12.3333 206.211 12.6L207.691 12.96C209.504 13.36 211.104 13.88 212.491 14.52C213.878 15.1333 214.971 15.9733 215.771 17.04C216.571 18.1067 216.971 19.48 216.971 21.16C216.971 22.84 216.544 24.3067 215.691 25.56C214.864 26.8133 213.678 27.8 212.131 28.52C210.584 29.2133 208.758 29.56 206.651 29.56ZM230.866 29.56C228.893 29.56 227.133 29.16 225.586 28.36C224.066 27.5333 222.866 26.36 221.986 24.84C221.106 23.32 220.666 21.52 220.666 19.44V18.84C220.666 16.76 221.106 14.9733 221.986 13.48C222.866 11.96 224.066 10.7867 225.586 9.96C227.133 9.13333 228.893 8.72 230.866 8.72C232.839 8.72 234.599 9.13333 236.146 9.96C237.693 10.7867 238.906 11.96 239.786 13.48C240.666 14.9733 241.106 16.76 241.106 18.84V19.44C241.106 21.52 240.666 23.32 239.786 24.84C238.906 26.36 237.693 27.5333 236.146 28.36C234.599 29.16 232.839 29.56 230.866 29.56ZM230.866 25.88C232.679 25.88 234.146 25.3067 235.266 24.16C236.413 22.9867 236.986 21.3733 236.986 19.32V18.96C236.986 16.9067 236.426 15.3067 235.306 14.16C234.186 12.9867 232.706 12.4 230.866 12.4C229.079 12.4 227.613 12.9867 226.466 14.16C225.346 15.3067 224.786 16.9067 224.786 18.96V19.32C224.786 21.3733 225.346 22.9867 226.466 24.16C227.613 25.3067 229.079 25.88 230.866 25.88ZM249.092 29V12.76H243.572V9.28H249.092V4.96C249.092 3.76 249.452 2.8 250.172 2.08C250.892 1.36 251.852 0.999998 253.052 0.999998H258.132V4.48H254.372C253.599 4.48 253.212 4.88 253.212 5.68V9.28H258.892V12.76H253.212V29H249.092ZM270.003 29C268.803 29 267.843 28.64 267.123 27.92C266.429 27.2 266.083 26.24 266.083 25.04V12.76H260.643V9.28H266.083V2.76H270.203V9.28H276.083V12.76H270.203V24.32C270.203 25.12 270.576 25.52 271.322 25.52H275.443V29H270.003ZM283.083 29L279.723 9.28H283.843L286.323 26.24H286.963L290.403 9.28H297.083L300.483 26.24H301.123L303.603 9.28H307.723L304.363 29H297.443L294.043 12.08H293.403L290.003 29H283.083ZM318.566 29.56C317.153 29.56 315.886 29.32 314.766 28.84C313.673 28.36 312.793 27.6533 312.126 26.72C311.486 25.7867 311.166 24.6533 311.166 23.32C311.166 21.96 311.486 20.84 312.126 19.96C312.793 19.0533 313.686 18.3733 314.806 17.92C315.953 17.4667 317.246 17.24 318.686 17.24H324.686V15.96C324.686 14.8133 324.34 13.8933 323.646 13.2C322.953 12.5067 321.886 12.16 320.446 12.16C319.033 12.16 317.953 12.4933 317.206 13.16C316.46 13.8267 315.966 14.6933 315.726 15.76L311.886 14.52C312.206 13.4533 312.713 12.4933 313.406 11.64C314.126 10.76 315.073 10.0533 316.246 9.52C317.42 8.98667 318.833 8.72 320.486 8.72C323.046 8.72 325.06 9.37333 326.526 10.68C327.993 11.9867 328.726 13.84 328.726 16.24V24.36C328.726 25.16 329.1 25.56 329.846 25.56H331.526V29H328.446C327.513 29 326.753 28.76 326.166 28.28C325.58 27.8 325.286 27.1467 325.286 26.32V26.2H324.686C324.473 26.6 324.153 27.0667 323.726 27.6C323.3 28.1333 322.673 28.6 321.846 29C321.02 29.3733 319.926 29.56 318.566 29.56ZM319.166 26.16C320.82 26.16 322.153 25.6933 323.166 24.76C324.18 23.8 324.686 22.4933 324.686 20.84V20.44H318.926C317.833 20.44 316.953 20.68 316.286 21.16C315.62 21.6133 315.286 22.2933 315.286 23.2C315.286 24.1067 315.633 24.8267 316.326 25.36C317.02 25.8933 317.966 26.16 319.166 26.16ZM335.532 29V9.28H339.572V11.6H340.212C340.532 10.7733 341.039 10.1733 341.732 9.8C342.452 9.4 343.332 9.2 344.372 9.2H346.732V12.92H344.212C342.879 12.92 341.786 13.2933 340.932 14.04C340.079 14.76 339.652 15.88 339.652 17.4V29H335.532ZM359.338 29.56C357.338 29.56 355.591 29.1467 354.098 28.32C352.604 27.4667 351.431 26.28 350.578 24.76C349.751 23.2133 349.338 21.4267 349.338 19.4V18.92C349.338 16.8667 349.751 15.08 350.578 13.56C351.404 12.0133 352.551 10.8267 354.018 10C355.511 9.14667 357.231 8.72 359.178 8.72C361.071 8.72 362.724 9.14667 364.138 10C365.578 10.8267 366.698 11.9867 367.498 13.48C368.298 14.9733 368.698 16.72 368.698 18.72V20.28H353.538C353.591 22.0133 354.164 23.4 355.258 24.44C356.378 25.4533 357.764 25.96 359.418 25.96C360.964 25.96 362.124 25.6133 362.898 24.92C363.698 24.2267 364.311 23.4267 364.738 22.52L368.138 24.28C367.764 25.0267 367.218 25.8133 366.498 26.64C365.804 27.4667 364.884 28.16 363.738 28.72C362.591 29.28 361.124 29.56 359.338 29.56ZM353.578 17.12H364.498C364.391 15.6267 363.858 14.4667 362.898 13.64C361.938 12.7867 360.684 12.36 359.138 12.36C357.591 12.36 356.324 12.7867 355.338 13.64C354.378 14.4667 353.791 15.6267 353.578 17.12ZM383.733 29V0.999998H401.372V4.92H388.053V12.96H400.253V16.88H388.053V25.08H401.573V29H383.733ZM406.196 29V9.28H410.236V12.24H410.876C411.25 11.44 411.916 10.6933 412.876 10C413.836 9.30667 415.263 8.96 417.156 8.96C418.65 8.96 419.97 9.29333 421.116 9.96C422.29 10.6267 423.21 11.5733 423.876 12.8C424.543 14 424.876 15.4533 424.876 17.16V29H420.756V17.48C420.756 15.7733 420.33 14.52 419.476 13.72C418.623 12.8933 417.45 12.48 415.956 12.48C414.25 12.48 412.876 13.04 411.836 14.16C410.823 15.28 410.316 16.9067 410.316 19.04V29H406.196ZM429.846 19.24V18.64C429.846 16.56 430.259 14.7867 431.086 13.32C431.939 11.8533 433.059 10.72 434.446 9.92C435.832 9.12 437.352 8.72 439.006 8.72C440.926 8.72 442.392 9.08 443.406 9.8C444.446 10.52 445.206 11.2933 445.686 12.12H446.326V9.28H450.326V33.04C450.326 34.24 449.966 35.2 449.246 35.92C448.552 36.64 447.592 37 446.366 37H433.086V33.4H445.086C445.859 33.4 446.246 33 446.246 32.2V25.92H445.606C445.312 26.4 444.899 26.8933 444.366 27.4C443.832 27.9067 443.126 28.32 442.246 28.64C441.392 28.96 440.312 29.12 439.006 29.12C437.352 29.12 435.819 28.7333 434.406 27.96C433.019 27.16 431.912 26.0267 431.086 24.56C430.259 23.0667 429.846 21.2933 429.846 19.24ZM440.126 25.52C441.912 25.52 443.379 24.96 444.526 23.84C445.699 22.6933 446.286 21.12 446.286 19.12V18.76C446.286 16.7067 445.712 15.1333 444.566 14.04C443.419 12.92 441.939 12.36 440.126 12.36C438.366 12.36 436.899 12.92 435.726 14.04C434.579 15.1333 434.006 16.7067 434.006 18.76V19.12C434.006 21.12 434.579 22.6933 435.726 23.84C436.899 24.96 438.366 25.52 440.126 25.52ZM456.392 29V9.28H460.512V29H456.392ZM458.472 6.6C457.672 6.6 456.992 6.34667 456.432 5.84C455.898 5.30666 455.632 4.62666 455.632 3.8C455.632 2.97333 455.898 2.30667 456.432 1.8C456.992 1.26667 457.672 0.999998 458.472 0.999998C459.298 0.999998 459.978 1.26667 460.512 1.8C461.045 2.30667 461.312 2.97333 461.312 3.8C461.312 4.62666 461.045 5.30666 460.512 5.84C459.978 6.34667 459.298 6.6 458.472 6.6ZM466.626 29V9.28H470.666V12.24H471.306C471.679 11.44 472.346 10.6933 473.306 10C474.266 9.30667 475.693 8.96 477.586 8.96C479.079 8.96 480.399 9.29333 481.546 9.96C482.719 10.6267 483.639 11.5733 484.306 12.8C484.973 14 485.306 15.4533 485.306 17.16V29H481.186V17.48C481.186 15.7733 480.759 14.52 479.906 13.72C479.053 12.8933 477.879 12.48 476.386 12.48C474.679 12.48 473.306 13.04 472.266 14.16C471.253 15.28 470.746 16.9067 470.746 19.04V29H466.626ZM500.275 29.56C498.275 29.56 496.529 29.1467 495.035 28.32C493.542 27.4667 492.369 26.28 491.515 24.76C490.689 23.2133 490.275 21.4267 490.275 19.4V18.92C490.275 16.8667 490.689 15.08 491.515 13.56C492.342 12.0133 493.489 10.8267 494.955 10C496.449 9.14667 498.169 8.72 500.115 8.72C502.009 8.72 503.662 9.14667 505.075 10C506.515 10.8267 507.635 11.9867 508.435 13.48C509.235 14.9733 509.635 16.72 509.635 18.72V20.28H494.475C494.529 22.0133 495.102 23.4 496.195 24.44C497.315 25.4533 498.702 25.96 500.355 25.96C501.902 25.96 503.062 25.6133 503.835 24.92C504.635 24.2267 505.249 23.4267 505.675 22.52L509.075 24.28C508.702 25.0267 508.155 25.8133 507.435 26.64C506.742 27.4667 505.822 28.16 504.675 28.72C503.529 29.28 502.062 29.56 500.275 29.56ZM494.515 17.12H505.435C505.329 15.6267 504.795 14.4667 503.835 13.64C502.875 12.7867 501.622 12.36 500.075 12.36C498.529 12.36 497.262 12.7867 496.275 13.64C495.315 14.4667 494.729 15.6267 494.515 17.12ZM523.635 29.56C521.635 29.56 519.888 29.1467 518.395 28.32C516.901 27.4667 515.728 26.28 514.875 24.76C514.048 23.2133 513.635 21.4267 513.635 19.4V18.92C513.635 16.8667 514.048 15.08 514.875 13.56C515.701 12.0133 516.848 10.8267 518.315 10C519.808 9.14667 521.528 8.72 523.475 8.72C525.368 8.72 527.021 9.14667 528.435 10C529.875 10.8267 530.995 11.9867 531.795 13.48C532.595 14.9733 532.995 16.72 532.995 18.72V20.28H517.835C517.888 22.0133 518.461 23.4 519.555 24.44C520.675 25.4533 522.061 25.96 523.715 25.96C525.261 25.96 526.421 25.6133 527.195 24.92C527.995 24.2267 528.608 23.4267 529.035 22.52L532.435 24.28C532.061 25.0267 531.515 25.8133 530.795 26.64C530.101 27.4667 529.181 28.16 528.035 28.72C526.888 29.28 525.421 29.56 523.635 29.56ZM517.875 17.12H528.795C528.688 15.6267 528.155 14.4667 527.195 13.64C526.235 12.7867 524.981 12.36 523.435 12.36C521.888 12.36 520.621 12.7867 519.635 13.64C518.675 14.4667 518.088 15.6267 517.875 17.12ZM537.954 29V9.28H541.994V11.6H542.634C542.954 10.7733 543.461 10.1733 544.154 9.8C544.874 9.4 545.754 9.2 546.794 9.2H549.154V12.92H546.634C545.301 12.92 544.207 13.2933 543.354 14.04C542.501 14.76 542.074 15.88 542.074 17.4V29H537.954Z" fill="#D3DDE9"/>
</svg>
