<svg width="455" height="37" viewBox="0 0 455 37" fill="none" xmlns="http://www.w3.org/2000/svg">
<path d="M11.44 29.56C9.33333 29.56 7.46667 29.1867 5.84 28.44C4.21333 27.6933 2.93333 26.6 2 25.16C1.09333 23.6933 0.64 21.92 0.64 19.84V18.84H4.92V19.84C4.92 21.8133 5.50667 23.2933 6.68 24.28C7.88 25.2667 9.46667 25.76 11.44 25.76C13.44 25.76 14.9467 25.3467 15.96 24.52C16.9733 23.6667 17.48 22.5733 17.48 21.24C17.48 20.36 17.24 19.64 16.76 19.08C16.28 18.52 15.6 18.08 14.72 17.76C13.84 17.4133 12.7867 17.0933 11.56 16.8L10.08 16.44C8.29333 16.0133 6.73333 15.4933 5.4 14.88C4.09333 14.24 3.08 13.4 2.36 12.36C1.64 11.32 1.28 9.98667 1.28 8.36C1.28 6.70667 1.68 5.29333 2.48 4.12C3.30667 2.94667 4.44 2.04 5.88 1.4C7.32 0.759998 9.01333 0.439998 10.96 0.439998C12.9067 0.439998 14.64 0.773332 16.16 1.44C17.7067 2.10667 18.92 3.09333 19.8 4.4C20.68 5.70667 21.12 7.34667 21.12 9.32V10.76H16.84V9.32C16.84 8.12 16.5867 7.14667 16.08 6.4C15.6 5.65333 14.92 5.10667 14.04 4.76C13.16 4.41333 12.1333 4.24 10.96 4.24C9.25333 4.24 7.92 4.6 6.96 5.32C6.02667 6.01333 5.56 6.98666 5.56 8.24C5.56 9.09333 5.76 9.8 6.16 10.36C6.58667 10.8933 7.2 11.3333 8 11.68C8.8 12.0267 9.8 12.3333 11 12.6L12.48 12.96C14.2933 13.36 15.8933 13.88 17.28 14.52C18.6667 15.1333 19.76 15.9733 20.56 17.04C21.36 18.1067 21.76 19.48 21.76 21.16C21.76 22.84 21.3333 24.3067 20.48 25.56C19.6533 26.8133 18.4667 27.8 16.92 28.52C15.3733 29.2133 13.5467 29.56 11.44 29.56ZM35.455 29.56C33.455 29.56 31.7083 29.1467 30.215 28.32C28.7217 27.4667 27.5483 26.28 26.695 24.76C25.8683 23.2133 25.455 21.4267 25.455 19.4V18.92C25.455 16.8667 25.8683 15.08 26.695 13.56C27.5217 12.0133 28.6683 10.8267 30.135 10C31.6283 9.14667 33.3483 8.72 35.295 8.72C37.1883 8.72 38.8417 9.14667 40.255 10C41.695 10.8267 42.815 11.9867 43.615 13.48C44.415 14.9733 44.815 16.72 44.815 18.72V20.28H29.655C29.7083 22.0133 30.2817 23.4 31.375 24.44C32.495 25.4533 33.8817 25.96 35.535 25.96C37.0817 25.96 38.2417 25.6133 39.015 24.92C39.815 24.2267 40.4283 23.4267 40.855 22.52L44.255 24.28C43.8817 25.0267 43.335 25.8133 42.615 26.64C41.9217 27.4667 41.0017 28.16 39.855 28.72C38.7083 29.28 37.2417 29.56 35.455 29.56ZM29.695 17.12H40.615C40.5083 15.6267 39.975 14.4667 39.015 13.64C38.055 12.7867 36.8017 12.36 35.255 12.36C33.7083 12.36 32.4417 12.7867 31.455 13.64C30.495 14.4667 29.9083 15.6267 29.695 17.12ZM49.7744 29V9.28H53.8144V12.24H54.4544C54.8277 11.44 55.4944 10.6933 56.4544 10C57.4144 9.30667 58.841 8.96 60.7344 8.96C62.2277 8.96 63.5477 9.29333 64.6944 9.96C65.8677 10.6267 66.7877 11.5733 67.4544 12.8C68.121 14 68.4544 15.4533 68.4544 17.16V29H64.3344V17.48C64.3344 15.7733 63.9077 14.52 63.0544 13.72C62.201 12.8933 61.0277 12.48 59.5344 12.48C57.8277 12.48 56.4544 13.04 55.4144 14.16C54.401 15.28 53.8944 16.9067 53.8944 19.04V29H49.7744ZM74.3838 29V9.28H78.5038V29H74.3838ZM76.4638 6.6C75.6638 6.6 74.9838 6.34667 74.4238 5.84C73.8904 5.30666 73.6238 4.62666 73.6238 3.8C73.6238 2.97333 73.8904 2.30667 74.4238 1.8C74.9838 1.26667 75.6638 0.999998 76.4638 0.999998C77.2904 0.999998 77.9704 1.26667 78.5038 1.8C79.0371 2.30667 79.3038 2.97333 79.3038 3.8C79.3038 4.62666 79.0371 5.30666 78.5038 5.84C77.9704 6.34667 77.2904 6.6 76.4638 6.6ZM93.8581 29.56C91.8848 29.56 90.1248 29.16 88.5781 28.36C87.0581 27.5333 85.8581 26.36 84.9781 24.84C84.0981 23.32 83.6581 21.52 83.6581 19.44V18.84C83.6581 16.76 84.0981 14.9733 84.9781 13.48C85.8581 11.96 87.0581 10.7867 88.5781 9.96C90.1248 9.13333 91.8848 8.72 93.8581 8.72C95.8315 8.72 97.5915 9.13333 99.1381 9.96C100.685 10.7867 101.898 11.96 102.778 13.48C103.658 14.9733 104.098 16.76 104.098 18.84V19.44C104.098 21.52 103.658 23.32 102.778 24.84C101.898 26.36 100.685 27.5333 99.1381 28.36C97.5915 29.16 95.8315 29.56 93.8581 29.56ZM93.8581 25.88C95.6715 25.88 97.1381 25.3067 98.2581 24.16C99.4048 22.9867 99.9781 21.3733 99.9781 19.32V18.96C99.9781 16.9067 99.4181 15.3067 98.2981 14.16C97.1781 12.9867 95.6981 12.4 93.8581 12.4C92.0715 12.4 90.6048 12.9867 89.4581 14.16C88.3381 15.3067 87.7781 16.9067 87.7781 18.96V19.32C87.7781 21.3733 88.3381 22.9867 89.4581 24.16C90.6048 25.3067 92.0715 25.88 93.8581 25.88ZM109.228 29V9.28H113.268V11.6H113.908C114.228 10.7733 114.734 10.1733 115.428 9.8C116.148 9.4 117.028 9.2 118.068 9.2H120.428V12.92H117.908C116.574 12.92 115.481 13.2933 114.628 14.04C113.774 14.76 113.348 15.88 113.348 17.4V29H109.228ZM133.732 29V25.16H137.492V4.84H133.732V0.999998H144.932C148.665 0.999998 151.518 1.94667 153.492 3.84C155.492 5.73333 156.492 8.58667 156.492 12.4V17.64C156.492 21.4533 155.492 24.3067 153.492 26.2C151.518 28.0667 148.665 29 144.932 29H133.732ZM141.852 25.08H144.972C147.398 25.08 149.198 24.4667 150.372 23.24C151.545 22.0133 152.132 20.1867 152.132 17.76V12.24C152.132 9.78667 151.545 7.96 150.372 6.76C149.198 5.56 147.398 4.96 144.972 4.96H141.852V25.08ZM170.533 29.56C168.533 29.56 166.786 29.1467 165.293 28.32C163.8 27.4667 162.626 26.28 161.773 24.76C160.946 23.2133 160.533 21.4267 160.533 19.4V18.92C160.533 16.8667 160.946 15.08 161.773 13.56C162.6 12.0133 163.746 10.8267 165.213 10C166.706 9.14667 168.426 8.72 170.373 8.72C172.266 8.72 173.92 9.14667 175.333 10C176.773 10.8267 177.893 11.9867 178.693 13.48C179.493 14.9733 179.893 16.72 179.893 18.72V20.28H164.733C164.786 22.0133 165.36 23.4 166.453 24.44C167.573 25.4533 168.96 25.96 170.613 25.96C172.16 25.96 173.32 25.6133 174.093 24.92C174.893 24.2267 175.506 23.4267 175.933 22.52L179.333 24.28C178.96 25.0267 178.413 25.8133 177.693 26.64C177 27.4667 176.08 28.16 174.933 28.72C173.786 29.28 172.32 29.56 170.533 29.56ZM164.773 17.12H175.693C175.586 15.6267 175.053 14.4667 174.093 13.64C173.133 12.7867 171.88 12.36 170.333 12.36C168.786 12.36 167.52 12.7867 166.533 13.64C165.573 14.4667 164.986 15.6267 164.773 17.12ZM188.748 29L182.108 9.28H186.468L191.708 25.96H192.348L197.588 9.28H201.948L195.308 29H188.748ZM216.346 29.56C212.906 29.56 210.173 28.6 208.146 26.68C206.12 24.7333 205.106 21.9333 205.106 18.28V11.72C205.106 8.06667 206.12 5.28 208.146 3.36C210.173 1.41333 212.906 0.439998 216.346 0.439998C219.786 0.439998 222.52 1.41333 224.546 3.36C226.6 5.28 227.626 8.06667 227.626 11.72V18.28C227.626 21.9333 226.6 24.7333 224.546 26.68C222.52 28.6 219.786 29.56 216.346 29.56ZM216.346 25.68C218.56 25.68 220.266 25.04 221.466 23.76C222.666 22.4533 223.266 20.68 223.266 18.44V11.56C223.266 9.32 222.666 7.56 221.466 6.28C220.266 4.97333 218.56 4.32 216.346 4.32C214.186 4.32 212.493 4.97333 211.266 6.28C210.04 7.56 209.426 9.32 209.426 11.56V18.44C209.426 20.68 210.04 22.4533 211.266 23.76C212.493 25.04 214.186 25.68 216.346 25.68ZM232.86 37V9.28H236.9V12.12H237.54C238.047 11.24 238.807 10.4533 239.82 9.76C240.86 9.06667 242.34 8.72 244.26 8.72C245.914 8.72 247.42 9.12 248.78 9.92C250.167 10.72 251.274 11.88 252.1 13.4C252.954 14.8933 253.38 16.7067 253.38 18.84V19.44C253.38 21.5733 252.967 23.4 252.14 24.92C251.314 26.4133 250.207 27.56 248.82 28.36C247.434 29.16 245.914 29.56 244.26 29.56C242.98 29.56 241.9 29.4 241.02 29.08C240.14 28.76 239.434 28.36 238.9 27.88C238.367 27.3733 237.94 26.8533 237.62 26.32H236.98V37H232.86ZM243.06 25.96C244.874 25.96 246.354 25.3867 247.5 24.24C248.647 23.0933 249.22 21.4533 249.22 19.32V18.96C249.22 16.8533 248.634 15.2267 247.46 14.08C246.314 12.9333 244.847 12.36 243.06 12.36C241.3 12.36 239.834 12.9333 238.66 14.08C237.514 15.2267 236.94 16.8533 236.94 18.96V19.32C236.94 21.4533 237.514 23.0933 238.66 24.24C239.834 25.3867 241.3 25.96 243.06 25.96ZM266.565 29.56C264.059 29.56 261.979 29 260.325 27.88C258.672 26.76 257.659 25.0667 257.285 22.8L261.125 21.88C261.339 22.9733 261.699 23.84 262.205 24.48C262.712 25.12 263.339 25.5733 264.085 25.84C264.859 26.1067 265.685 26.24 266.565 26.24C267.872 26.24 268.872 25.9867 269.565 25.48C270.285 24.9733 270.645 24.32 270.645 23.52C270.645 22.72 270.312 22.1333 269.645 21.76C268.979 21.3867 267.992 21.08 266.685 20.84L265.325 20.6C263.992 20.36 262.779 20.0133 261.685 19.56C260.592 19.1067 259.725 18.48 259.085 17.68C258.445 16.88 258.125 15.8533 258.125 14.6C258.125 12.7333 258.819 11.2933 260.205 10.28C261.592 9.24 263.432 8.72 265.725 8.72C267.939 8.72 269.752 9.22667 271.165 10.24C272.605 11.2267 273.539 12.5733 273.965 14.28L270.125 15.36C269.885 14.16 269.379 13.32 268.605 12.84C267.832 12.3333 266.872 12.08 265.725 12.08C264.605 12.08 263.725 12.2933 263.085 12.72C262.445 13.12 262.125 13.6933 262.125 14.44C262.125 15.24 262.432 15.8267 263.045 16.2C263.685 16.5733 264.539 16.8533 265.605 17.04L267.005 17.28C268.419 17.52 269.712 17.8533 270.885 18.28C272.059 18.7067 272.979 19.32 273.645 20.12C274.339 20.92 274.685 21.9867 274.685 23.32C274.685 25.2933 273.952 26.8267 272.485 27.92C271.019 29.0133 269.045 29.56 266.565 29.56ZM289.576 29V0.999998H307.216V4.92H293.896V12.96H306.096V16.88H293.896V25.08H307.416V29H289.576ZM312.04 29V9.28H316.08V12.24H316.72C317.093 11.44 317.76 10.6933 318.72 10C319.68 9.30667 321.107 8.96 323 8.96C324.493 8.96 325.813 9.29333 326.96 9.96C328.133 10.6267 329.053 11.5733 329.72 12.8C330.387 14 330.72 15.4533 330.72 17.16V29H326.6V17.48C326.6 15.7733 326.173 14.52 325.32 13.72C324.467 12.8933 323.293 12.48 321.8 12.48C320.093 12.48 318.72 13.04 317.68 14.16C316.667 15.28 316.16 16.9067 316.16 19.04V29H312.04ZM335.689 19.24V18.64C335.689 16.56 336.103 14.7867 336.929 13.32C337.783 11.8533 338.903 10.72 340.289 9.92C341.676 9.12 343.196 8.72 344.849 8.72C346.769 8.72 348.236 9.08 349.249 9.8C350.289 10.52 351.049 11.2933 351.529 12.12H352.169V9.28H356.169V33.04C356.169 34.24 355.809 35.2 355.089 35.92C354.396 36.64 353.436 37 352.209 37H338.929V33.4H350.929C351.703 33.4 352.089 33 352.089 32.2V25.92H351.449C351.156 26.4 350.743 26.8933 350.209 27.4C349.676 27.9067 348.969 28.32 348.089 28.64C347.236 28.96 346.156 29.12 344.849 29.12C343.196 29.12 341.663 28.7333 340.249 27.96C338.863 27.16 337.756 26.0267 336.929 24.56C336.103 23.0667 335.689 21.2933 335.689 19.24ZM345.969 25.52C347.756 25.52 349.223 24.96 350.369 23.84C351.543 22.6933 352.129 21.12 352.129 19.12V18.76C352.129 16.7067 351.556 15.1333 350.409 14.04C349.263 12.92 347.783 12.36 345.969 12.36C344.209 12.36 342.743 12.92 341.569 14.04C340.423 15.1333 339.849 16.7067 339.849 18.76V19.12C339.849 21.12 340.423 22.6933 341.569 23.84C342.743 24.96 344.209 25.52 345.969 25.52ZM362.235 29V9.28H366.355V29H362.235ZM364.315 6.6C363.515 6.6 362.835 6.34667 362.275 5.84C361.742 5.30666 361.475 4.62666 361.475 3.8C361.475 2.97333 361.742 2.30667 362.275 1.8C362.835 1.26667 363.515 0.999998 364.315 0.999998C365.142 0.999998 365.822 1.26667 366.355 1.8C366.889 2.30667 367.155 2.97333 367.155 3.8C367.155 4.62666 366.889 5.30666 366.355 5.84C365.822 6.34667 365.142 6.6 364.315 6.6ZM372.47 29V9.28H376.51V12.24H377.15C377.523 11.44 378.19 10.6933 379.15 10C380.11 9.30667 381.536 8.96 383.43 8.96C384.923 8.96 386.243 9.29333 387.39 9.96C388.563 10.6267 389.483 11.5733 390.15 12.8C390.816 14 391.15 15.4533 391.15 17.16V29H387.03V17.48C387.03 15.7733 386.603 14.52 385.75 13.72C384.896 12.8933 383.723 12.48 382.23 12.48C380.523 12.48 379.15 13.04 378.11 14.16C377.096 15.28 376.59 16.9067 376.59 19.04V29H372.47ZM406.119 29.56C404.119 29.56 402.372 29.1467 400.879 28.32C399.386 27.4667 398.212 26.28 397.359 24.76C396.532 23.2133 396.119 21.4267 396.119 19.4V18.92C396.119 16.8667 396.532 15.08 397.359 13.56C398.186 12.0133 399.332 10.8267 400.799 10C402.292 9.14667 404.012 8.72 405.959 8.72C407.852 8.72 409.506 9.14667 410.919 10C412.359 10.8267 413.479 11.9867 414.279 13.48C415.079 14.9733 415.479 16.72 415.479 18.72V20.28H400.319C400.372 22.0133 400.946 23.4 402.039 24.44C403.159 25.4533 404.546 25.96 406.199 25.96C407.746 25.96 408.906 25.6133 409.679 24.92C410.479 24.2267 411.092 23.4267 411.519 22.52L414.919 24.28C414.546 25.0267 413.999 25.8133 413.279 26.64C412.586 27.4667 411.666 28.16 410.519 28.72C409.372 29.28 407.906 29.56 406.119 29.56ZM400.359 17.12H411.279C411.172 15.6267 410.639 14.4667 409.679 13.64C408.719 12.7867 407.466 12.36 405.919 12.36C404.372 12.36 403.106 12.7867 402.119 13.64C401.159 14.4667 400.572 15.6267 400.359 17.12ZM429.478 29.56C427.478 29.56 425.732 29.1467 424.238 28.32C422.745 27.4667 421.572 26.28 420.718 24.76C419.892 23.2133 419.478 21.4267 419.478 19.4V18.92C419.478 16.8667 419.892 15.08 420.718 13.56C421.545 12.0133 422.692 10.8267 424.158 10C425.652 9.14667 427.372 8.72 429.318 8.72C431.212 8.72 432.865 9.14667 434.278 10C435.718 10.8267 436.838 11.9867 437.638 13.48C438.438 14.9733 438.838 16.72 438.838 18.72V20.28H423.678C423.732 22.0133 424.305 23.4 425.398 24.44C426.518 25.4533 427.905 25.96 429.558 25.96C431.105 25.96 432.265 25.6133 433.038 24.92C433.838 24.2267 434.452 23.4267 434.878 22.52L438.278 24.28C437.905 25.0267 437.358 25.8133 436.638 26.64C435.945 27.4667 435.025 28.16 433.878 28.72C432.732 29.28 431.265 29.56 429.478 29.56ZM423.718 17.12H434.638C434.532 15.6267 433.998 14.4667 433.038 13.64C432.078 12.7867 430.825 12.36 429.278 12.36C427.732 12.36 426.465 12.7867 425.478 13.64C424.518 14.4667 423.932 15.6267 423.718 17.12ZM443.798 29V9.28H447.838V11.6H448.478C448.798 10.7733 449.304 10.1733 449.998 9.8C450.718 9.4 451.598 9.2 452.638 9.2H454.998V12.92H452.478C451.144 12.92 450.051 13.2933 449.198 14.04C448.344 14.76 447.918 15.88 447.918 17.4V29H443.798Z" fill="#2F6EF6"/>
</svg>
