<svg width="322" height="150" viewBox="0 0 322 150" fill="none" xmlns="http://www.w3.org/2000/svg">
<g opacity="0.5">
<path d="M322.991 136.861L317.405 133.071L303.772 134.826L296.358 146.934L288.574 124L283.074 130.5L278.074 122L267.574 124L260.074 114.5L251.074 117L236.574 108L234.074 102.5L217.074 109.035L200.574 92.3581L194.074 84.3691L179.074 96.5L166.237 100.69L166.248 106.218L143.313 106.264L140.22 109.035L92.4761 104.529L77.5858 97.6487L66.9355 106.218L48.9355 92.3581L34.4355 92.3581L26.1037 80.4762L-7.99979 74.6708" stroke="url(#paint0_linear_1_6244)" stroke-width="2"/>
<path d="M322.016 93H311.489L305.296 81.2877L284.862 90.5343L271.858 92.3836L265.666 87.4521L257.616 90.5343L225.416 70.1918L216.127 74.5069L209.935 68.9589L199.408 72.6575L186.404 60.3288L178.354 68.9589L171.543 39.9863L164.112 62.1781L154.823 51.0822L138.723 66.4932L131.912 57.863L114.434 68.9589L102.189 59.9589L91.6618 61.1918L81.4336 57.863L64.199 55.5H52.4336L47.0772 30.7397L32.2156 53.5479L22.308 14.0959L13.6387 3L9.92334 14.0959L0.015625 18.411" stroke="#2F6EF6" stroke-width="2"/>
<path opacity="0.2" d="M311.936 94L11.9355 94" stroke="url(#paint1_linear_1_6244)"/>
</g>
<defs>
<linearGradient id="paint0_linear_1_6244" x1="16.5723" y1="82" x2="343.072" y2="142.5" gradientUnits="userSpaceOnUse">
<stop stop-color="#D1DCE8"/>
<stop offset="1" stop-color="#D1DCE8" stop-opacity="0"/>
</linearGradient>
<linearGradient id="paint1_linear_1_6244" x1="220" y1="94.5" x2="-23.5483" y2="94.5" gradientUnits="userSpaceOnUse">
<stop stop-color="#C0CFDF"/>
<stop offset="1" stop-color="#C0CFDF" stop-opacity="0"/>
</linearGradient>
</defs>
</svg>
