<svg width="196" height="196" viewBox="0 0 196 196" fill="none" xmlns="http://www.w3.org/2000/svg">
<g opacity="0.5">
<path d="M163.342 54.4472C133.271 24.3769 84.5176 24.3769 54.4473 54.4472C24.3769 84.5176 24.3769 133.271 54.4473 163.342" stroke="url(#paint0_linear_1_6251)" stroke-width="46" stroke-linecap="square"/>
<path fill-rule="evenodd" clip-rule="evenodd" d="M109.002 185C150.976 185 185.002 150.974 185.002 109C185.002 67.0262 150.976 32.9999 109.002 32.9999C67.0283 32.9999 33.002 67.0262 33.002 109C33.002 150.974 67.0283 185 109.002 185ZM109.002 186C151.528 186 186.002 151.526 186.002 109C186.002 66.474 151.528 31.9999 109.002 31.9999C66.476 31.9999 32.002 66.474 32.002 109C32.002 151.526 66.476 186 109.002 186Z" fill="url(#paint1_linear_1_6251)"/>
</g>
<defs>
<linearGradient id="paint0_linear_1_6251" x1="56.9221" y1="165.817" x2="178.502" y2="49.9999" gradientUnits="userSpaceOnUse">
<stop stop-color="white" stop-opacity="0.38"/>
<stop offset="1" stop-color="#2F6EF6"/>
</linearGradient>
<linearGradient id="paint1_linear_1_6251" x1="181.502" y1="54.9999" x2="99.5019" y2="213" gradientUnits="userSpaceOnUse">
<stop stop-color="#8FAFD1"/>
<stop offset="1" stop-color="#D1DCE8" stop-opacity="0"/>
</linearGradient>
</defs>
</svg>
