<svg
									width="64"
									height="64"
									viewBox="0 0 64 64"
									fill="none"
									xmlns="http://www.w3.org/2000/svg"
								>
									<path
										d="M53.3346 32C53.3346 45.0891 39.0574 54.609 33.8626 57.6396L32.0075 58.6426L30.14 57.6396C24.9452 54.609 10.668 45.0891 10.668 32V19.2469C10.668 17.1149 10.668 16.0489 11.0167 15.1325C11.3247 14.323 11.8253 13.6007 12.4751 13.028C13.2106 12.3798 14.2088 12.0055 16.205 11.2569L16.205 11.2569L30.5032 5.89509L32.0013 5.31982L33.4994 5.89509L47.7976 11.2569C49.7938 12.0055 50.792 12.3798 51.5275 13.028C52.1773 13.6007 52.6779 14.323 52.9859 15.1325C53.3346 16.0489 53.3346 17.1149 53.3346 19.2469V32Z"
										fill="#5DC36D"
									/>
									<path
										d="M24 30.6667L29.3333 36L41.3333 24"
										stroke="white"
										stroke-width="3"
										stroke-linejoin="round"
									/>
								</svg>