<svg width="150" height="150" viewBox="0 0 150 150" fill="none" xmlns="http://www.w3.org/2000/svg">
<g id="illustartion">
<g id="Group 4675">
<circle id="Ellipse 123" opacity="0.5" cx="75.0666" cy="35.6953" r="33.3088" fill="url(#paint0_linear_1_274)"/>
<circle id="Ellipse 122" opacity="0.8" cx="75.0648" cy="62.3419" r="49.9632" fill="url(#paint1_linear_1_274)"/>
<circle id="Ellipse 121" cx="75.0662" cy="86.5484" r="61.0662" fill="url(#paint2_linear_1_274)"/>
<g id="Group 4674">
<path id="Vector" opacity="0.2" d="M61.7402 96.5745C61.7402 101.912 65.8648 106.204 70.9242 106.204H81.2628C85.6623 106.204 89.2369 102.462 89.2369 97.7851C89.2369 92.7778 87.0372 90.962 83.7926 89.8065L67.2396 84.0289C63.995 82.8734 61.7953 81.1126 61.7953 76.0503C61.7953 71.4282 65.3698 67.6315 69.7692 67.6315H80.108C85.1674 67.6315 89.292 71.9234 89.292 77.2608" stroke="#000655" stroke-width="1.5" stroke-linecap="round" stroke-linejoin="round"/>
<path id="Vector_2" opacity="0.2" d="M75.5156 62.1211V111.714" stroke="#000655" stroke-width="1.5" stroke-linecap="round" stroke-linejoin="round"/>
</g>
</g>
</g>
<defs>
<linearGradient id="paint0_linear_1_274" x1="75.932" y1="2.66405" x2="75.932" y2="81.7725" gradientUnits="userSpaceOnUse">
<stop stop-color="white"/>
<stop offset="1" stop-color="white" stop-opacity="0"/>
</linearGradient>
<linearGradient id="paint1_linear_1_274" x1="76.3629" y1="12.795" x2="76.3629" y2="131.458" gradientUnits="userSpaceOnUse">
<stop stop-color="white"/>
<stop offset="1" stop-color="white" stop-opacity="0"/>
</linearGradient>
<linearGradient id="paint2_linear_1_274" x1="76.6527" y1="25.9911" x2="76.6528" y2="171.023" gradientUnits="userSpaceOnUse">
<stop stop-color="white"/>
<stop offset="1" stop-color="white" stop-opacity="0"/>
</linearGradient>
</defs>
</svg>
