<svg width="150" height="150" viewBox="0 0 150 150" fill="none" xmlns="http://www.w3.org/2000/svg">
<path d="M50.0588 113.985C44.4118 102.666 43 94.1144 43 86.2537V78H100.647V147H54.7647V136.388C54.5 125.5 55.7059 125.304 50.0588 113.985Z" fill="url(#paint0_linear_1_288)"/>
<rect x="10" y="3" width="130" height="76" rx="2" fill="url(#paint1_linear_1_288)"/>
<path d="M67 62C67 53.7071 58.4843 47 48 47C37.5157 47 29 53.7071 29 62H67Z" fill="url(#paint2_linear_1_288)"/>
<path d="M48 43C53.5228 43 58 38.5228 58 33C58 27.4772 53.5228 23 48 23C42.4772 23 38 27.4772 38 33C38 38.5228 42.4772 43 48 43Z" fill="url(#paint3_linear_1_288)"/>
<path d="M115.818 95.1568L100.673 117.052V147.014H89.6484L83.1972 117.052C70.1488 88.4724 91.7408 76.7195 104.168 74.4155V54.215C105.1 46.8399 113.877 42.5326 118.148 43.3009V81.3286C118.148 88.7036 116.595 93.6204 115.818 95.1568Z" fill="url(#paint4_linear_1_288)"/>
<defs>
<linearGradient id="paint0_linear_1_288" x1="54" y1="60" x2="111.255" y2="104.494" gradientUnits="userSpaceOnUse">
<stop stop-color="#2F6EF6"/>
<stop offset="1" stop-color="white"/>
</linearGradient>
<linearGradient id="paint1_linear_1_288" x1="143.175" y1="79" x2="7.3645" y2="-11.5462" gradientUnits="userSpaceOnUse">
<stop stop-color="#2F6EF6"/>
<stop offset="1" stop-color="white"/>
</linearGradient>
<linearGradient id="paint2_linear_1_288" x1="35.5" y1="50.5" x2="42.5857" y2="78.5511" gradientUnits="userSpaceOnUse">
<stop stop-color="white"/>
<stop offset="0.0001" stop-color="white"/>
<stop offset="1" stop-color="white" stop-opacity="0"/>
</linearGradient>
<linearGradient id="paint3_linear_1_288" x1="38" y1="28.6802" x2="69.579" y2="43.517" gradientUnits="userSpaceOnUse">
<stop stop-color="white"/>
<stop offset="1" stop-color="white" stop-opacity="0"/>
</linearGradient>
<linearGradient id="paint4_linear_1_288" x1="100.65" y1="158.975" x2="55.388" y2="132.022" gradientUnits="userSpaceOnUse">
<stop stop-color="#2F6EF6"/>
<stop offset="1" stop-color="white"/>
</linearGradient>
</defs>
</svg>
