<svg width="150" height="150" viewBox="0 0 150 150" fill="none" xmlns="http://www.w3.org/2000/svg">
<g id="illustration">
<path id="Rectangle 2085" d="M75.5 21.2595L138 55.7595L75.5 90.2595L13 55.7595L75.5 21.2595Z" fill="url(#paint0_linear_1_301)"/>
<g id="Group 4715">
<g id="Group 4714">
<path id="Rectangle 2089" d="M28.4414 8H107.976L114.604 14.6279L122.557 22.5814V123.325H28.4414V8Z" fill="url(#paint1_linear_1_301)"/>
<path id="Vector 137" d="M122.559 22.5814H107.977V8.00007L122.559 22.5814Z" fill="white"/>
</g>
<path id="Line 18" opacity="0.6" d="M49.3242 52.4365H101.675" stroke="white" stroke-linecap="square"/>
<path id="Line 19" opacity="0.6" d="M49.3242 58.8468H101.675" stroke="white" stroke-linecap="square"/>
<path id="Line 20" opacity="0.6" d="M49.3242 65.2571H101.675" stroke="white" stroke-linecap="square"/>
<circle id="Ellipse 127" cx="76" cy="39" r="6" fill="white"/>
</g>
<path id="Rectangle 2087" d="M13 55.2595L75.5 90.0177L138 55.2595V141.26H13V55.2595Z" fill="url(#paint2_linear_1_301)"/>
</g>
<defs>
<linearGradient id="paint0_linear_1_301" x1="75.5" y1="6.13623" x2="74.7813" y2="89.7807" gradientUnits="userSpaceOnUse">
<stop stop-color="white"/>
<stop offset="1" stop-color="white" stop-opacity="0"/>
</linearGradient>
<linearGradient id="paint1_linear_1_301" x1="75.4994" y1="-4" x2="83.1849" y2="152.387" gradientUnits="userSpaceOnUse">
<stop stop-color="white"/>
<stop offset="1" stop-color="white" stop-opacity="0"/>
</linearGradient>
<linearGradient id="paint2_linear_1_301" x1="72.2105" y1="54.6225" x2="72.2105" y2="143.847" gradientUnits="userSpaceOnUse">
<stop stop-color="white"/>
<stop offset="1" stop-color="white" stop-opacity="0"/>
</linearGradient>
</defs>
</svg>
