<svg width="162" height="150" viewBox="0 0 162 150" fill="none" xmlns="http://www.w3.org/2000/svg">
<g id="illustration">
<g id="Group 4670">
<circle id="Ellipse 121" opacity="0.5" cx="64" cy="145" r="4" fill="#000655"/>
<circle id="Ellipse 120" opacity="0.5" cx="81" cy="145" r="4" fill="#000655"/>
<circle id="Ellipse 119" opacity="0.5" cx="97" cy="145" r="4" fill="#000655"/>
</g>
<g id="Group 4669">
<g id="Group 4668">
<path id="Rectangle 2070" d="M0 49H63V111.432H47.25V126L29.4 111.432H0V49Z" fill="url(#paint0_linear_1_316)"/>
<g id="Group 4664">
<path id="Vector" d="M46 96C46 89.3657 39.2771 84 31 84C22.7229 84 16 89.3657 16 96H46Z" fill="url(#paint1_linear_1_316)"/>
<path id="Vector_2" d="M31 81C35.4183 81 39 77.4183 39 73C39 68.5817 35.4183 65 31 65C26.5817 65 23 68.5817 23 73C23 77.4183 26.5817 81 31 81Z" fill="url(#paint2_linear_1_316)"/>
</g>
</g>
<g id="Group 4666">
<rect id="Rectangle 2071" x="52" y="4" width="63" height="63" fill="url(#paint3_linear_1_316)"/>
<g id="Group 4665">
<path id="Vector_3" d="M98 51C98 44.3657 91.2771 39 83 39C74.7229 39 68 44.3657 68 51H98Z" fill="url(#paint4_linear_1_316)"/>
<path id="Vector_4" d="M83 36C87.4183 36 91 32.4183 91 28C91 23.5817 87.4183 20 83 20C78.5817 20 75 23.5817 75 28C75 32.4183 78.5817 36 83 36Z" fill="url(#paint5_linear_1_316)"/>
</g>
</g>
<g id="Group 4667">
<path id="Rectangle 2073" d="M162 44H99V106.432H114.75V121L132.6 106.432H162V44Z" fill="url(#paint6_linear_1_316)"/>
<g id="Group 4664_2">
<path id="Vector_5" d="M146 92C146 85.3657 139.277 80 131 80C122.723 80 116 85.3657 116 92H146Z" fill="url(#paint7_linear_1_316)"/>
<path id="Vector_6" d="M131 77C135.418 77 139 73.4183 139 69C139 64.5817 135.418 61 131 61C126.582 61 123 64.5817 123 69C123 73.4183 126.582 77 131 77Z" fill="url(#paint8_linear_1_316)"/>
</g>
</g>
</g>
</g>
<defs>
<linearGradient id="paint0_linear_1_316" x1="130.5" y1="-18" x2="-3.92279" y2="119.066" gradientUnits="userSpaceOnUse">
<stop stop-color="#000655"/>
<stop offset="1" stop-color="white"/>
</linearGradient>
<linearGradient id="paint1_linear_1_316" x1="18.5" y1="89" x2="31.4994" y2="118.695" gradientUnits="userSpaceOnUse">
<stop stop-color="white"/>
<stop offset="1" stop-color="#000655"/>
</linearGradient>
<linearGradient id="paint2_linear_1_316" x1="24.3333" y1="71.6667" x2="47.8283" y2="93.1351" gradientUnits="userSpaceOnUse">
<stop stop-color="white"/>
<stop offset="1" stop-color="#000655"/>
</linearGradient>
<linearGradient id="paint3_linear_1_316" x1="180.5" y1="134.5" x2="47" y2="-0.999987" gradientUnits="userSpaceOnUse">
<stop stop-color="#000655"/>
<stop offset="1" stop-color="white"/>
</linearGradient>
<linearGradient id="paint4_linear_1_316" x1="70.5" y1="44" x2="83.4994" y2="73.6953" gradientUnits="userSpaceOnUse">
<stop stop-color="white"/>
<stop offset="1" stop-color="#000655"/>
</linearGradient>
<linearGradient id="paint5_linear_1_316" x1="76.3333" y1="26.6667" x2="99.8283" y2="48.1351" gradientUnits="userSpaceOnUse">
<stop stop-color="white"/>
<stop offset="1" stop-color="#000655"/>
</linearGradient>
<linearGradient id="paint6_linear_1_316" x1="209" y1="161.5" x2="99.9862" y2="46.0409" gradientUnits="userSpaceOnUse">
<stop stop-color="#000655"/>
<stop offset="1" stop-color="white"/>
</linearGradient>
<linearGradient id="paint7_linear_1_316" x1="118.5" y1="85" x2="131.499" y2="114.695" gradientUnits="userSpaceOnUse">
<stop stop-color="white"/>
<stop offset="1" stop-color="#000655"/>
</linearGradient>
<linearGradient id="paint8_linear_1_316" x1="124.333" y1="67.6667" x2="147.828" y2="89.1351" gradientUnits="userSpaceOnUse">
<stop stop-color="white"/>
<stop offset="1" stop-color="#000655"/>
</linearGradient>
</defs>
</svg>
